<svg width="20" height="20" viewBox="0 0 20 20" fill="none" xmlns="http://www.w3.org/2000/svg">
<path d="M10.8332 9.16675H14.1665C14.3875 9.16675 14.5995 9.25455 14.7558 9.41083C14.912 9.56711 14.9998 9.77907 14.9998 10.0001C14.9998 10.2211 14.912 10.4331 14.7558 10.5893C14.5995 10.7456 14.3875 10.8334 14.1665 10.8334H9.99984C9.77882 10.8334 9.56686 10.7456 9.41058 10.5893C9.2543 10.4331 9.1665 10.2211 9.1665 10.0001V5.00008C9.1665 4.77907 9.2543 4.56711 9.41058 4.41083C9.56686 4.25455 9.77882 4.16675 9.99984 4.16675C10.2209 4.16675 10.4328 4.25455 10.5891 4.41083C10.7454 4.56711 10.8332 4.77907 10.8332 5.00008V9.16675ZM9.99984 18.3334C5.39734 18.3334 1.6665 14.6026 1.6665 10.0001C1.6665 5.39758 5.39734 1.66675 9.99984 1.66675C14.6023 1.66675 18.3332 5.39758 18.3332 10.0001C18.3332 14.6026 14.6023 18.3334 9.99984 18.3334ZM9.99984 16.6667C11.7679 16.6667 13.4636 15.9644 14.7139 14.7141C15.9641 13.4639 16.6665 11.7682 16.6665 10.0001C16.6665 8.23197 15.9641 6.53628 14.7139 5.28604C13.4636 4.03579 11.7679 3.33341 9.99984 3.33341C8.23173 3.33341 6.53604 4.03579 5.28579 5.28604C4.03555 6.53628 3.33317 8.23197 3.33317 10.0001C3.33317 11.7682 4.03555 13.4639 5.28579 14.7141C6.53604 15.9644 8.23173 16.6667 9.99984 16.6667Z" fill="#5F646F"/>
</svg>
